<?xml version="1.0" encoding="UTF-8" standalone="no"?>
<svg
   xmlns:dc="http://purl.org/dc/elements/1.1/"
   xmlns:cc="http://creativecommons.org/ns#"
   xmlns:rdf="http://www.w3.org/1999/02/22-rdf-syntax-ns#"
   xmlns:svg="http://www.w3.org/2000/svg"
   xmlns="http://www.w3.org/2000/svg"
   xmlns:sodipodi="http://sodipodi.sourceforge.net/DTD/sodipodi-0.dtd"
   xmlns:inkscape="http://www.inkscape.org/namespaces/inkscape"
   height="512px"
   viewBox="-95 -18 586 586.66647"
   width="512px"
   version="1.1"
   id="svg3809"
   sodipodi:docname="download2.svg"
   inkscape:version="0.92.3 (2405546, 2018-03-11)">
  <metadata
     id="metadata3815">
    <rdf:RDF>
      <cc:Work
         rdf:about="">
        <dc:format>image/svg+xml</dc:format>
        <dc:type
           rdf:resource="http://purl.org/dc/dcmitype/StillImage" />
        <dc:title></dc:title>
      </cc:Work>
    </rdf:RDF>
  </metadata>
  <defs
     id="defs3813" />
  <sodipodi:namedview
     pagecolor="#ffffff"
     bordercolor="#666666"
     borderopacity="1"
     objecttolerance="10"
     gridtolerance="10"
     guidetolerance="10"
     inkscape:pageopacity="0"
     inkscape:pageshadow="2"
     inkscape:window-width="2560"
     inkscape:window-height="1367"
     id="namedview3811"
     showgrid="false"
     inkscape:zoom="1.1230469"
     inkscape:cx="361.24287"
     inkscape:cy="176.30868"
     inkscape:window-x="0"
     inkscape:window-y="36"
     inkscape:window-maximized="1"
     inkscape:current-layer="svg3809" />
  <path
     d="m328.660156.00390625h-194.496094c-.421874-.01953125-.84375.01953125-1.25.12890575-.25 0-.625.121094-.875.121094h-.375c-.375.125-.753906.125-1 .25h-.128906c-.335937.105469-.671875.226563-.996094.375h-.125c-.359374.117188-.695312.28125-1.003906.503906-.066406 0-.121094.050782-.121094.121094-.277343.195313-.570312.359375-.878906.503906-.121094 0-.121094.121094-.25.121094-.246094.125-.496094.375-.746094.503906l-.253906.246094c-.25.25-.625.5-.875.75l-.121094.125-127.25 127.25c0 .121094-.125.121094-.125.25-.210937.21875-.375.472656-.5.75 0 .125-.125.125-.125.25-.191406.273438-.363281.566406-.5.875 0 .066406-.058593.125-.125.125-.191406.320313-.355468.65625-.5.996094v.128906c-.105468.339844-.226562.671875-.375 1v.121094c-.125.324219-.210937.660156-.25 1.003906v.375c0 .25-.125.625-.125.875 0 .375-.121093.871094-.121093 1.25v348.496094c.007812 34.511719 27.980469 62.484375 62.496093 62.5h270.996094c34.515625-.015625 62.488282-27.988281 62.5-62.5v-424.996094c-.011718-34.511718-27.984375-62.4843748-62.5-62.49999975zm-206.996094 42.62890575v46.25c-.0625 20.679688-16.816406 37.433594-37.5 37.496094h-46.25zm244.496094 444.867188c-.058594 20.683594-16.8125 37.441406-37.5 37.5h-270.996094c-20.6875-.058594-37.441406-16.816406-37.5-37.5v-336.121094h63.875c34.507813-.011718 62.488282-27.988281 62.496094-62.496094v-63.878906h182c20.683594.058594 37.4375 16.816406 37.5 37.5v424.996094zm0 0"
     fill="#FFFFFF"
     id="path3805"
     style="fill:#ffffff" />
  <path
     d="m 105.94655,363.90527 79.75,66.875 c 0.12109,0.125 0.25,0.25391 0.37109,0.25391 0.125,0.12109 0.375,0.24609 0.50391,0.37109 0.12109,0.125 0.24609,0.125 0.375,0.25391 0.12109,0.12109 0.37109,0.24609 0.49609,0.37109 0.12891,0.125 0.37891,0.125 0.5,0.25391 0.125,0.12109 0.375,0.12109 0.50391,0.24609 0.12109,0.125 0.375,0.125 0.49609,0.25 0.25,0.12891 0.375,0.12891 0.625,0.25 0.12891,0 0.375,0.125 0.50391,0.125 0.25,0 0.37109,0.125 0.625,0.125 0.12109,0 0.37109,0.125 0.49609,0.125 0.25,0 0.5,0.12891 0.75391,0.12891 h 0.37109 c 0.78906,0.12109 1.58985,0.12109 2.37891,0 h 0.375 c 0.25,0 0.49609,-0.12891 0.74609,-0.12891 0.12891,0 0.375,-0.125 0.50391,-0.125 0.25,0 0.37109,-0.125 0.625,-0.125 0.12109,0 0.37109,-0.125 0.49609,-0.125 0.25,-0.12109 0.37891,-0.12109 0.625,-0.25 0.12891,-0.125 0.37891,-0.125 0.5,-0.25 0.25391,-0.125 0.375,-0.125 0.50391,-0.24609 0.12109,-0.12891 0.375,-0.12891 0.49609,-0.25391 0.19141,-0.0937 0.36328,-0.22265 0.50391,-0.37109 0.12109,-0.12891 0.25,-0.12891 0.37109,-0.25391 0.19141,-0.0937 0.35938,-0.22265 0.50391,-0.37109 0.12109,-0.12891 0.24609,-0.12891 0.375,-0.25391 l 79.74609,-66.875 c 5.28125,-4.45313 5.95703,-12.34375 1.50391,-17.62109 -4.45313,-5.28516 -12.34375,-5.95313 -17.62891,-1.5 l -59.24609,49.625 v -182.75 c 0,-6.90235 -5.59766,-12.5 -12.5,-12.5 -6.90625,0 -12.5,5.59765 -12.5,12.5 v 182.75 l -59.25391,-49.625 c -5.32031,-4.39844 -13.1914,-3.67188 -17.62109,1.62109 -3.999998,5.48828 -3.07031,13.13281 2.125,17.5 z m 0,0"
     id="path3807"
     style="fill:#ffffff"
     inkscape:connector-curvature="0" />
</svg>
